{"accessors" : [{"bufferView" : 0, "byteOffset" : 0, "componentType" : 5123, "count" : 36, "type" : "SCALAR", "max" : [7], "min" : [0]}, {"bufferView" : 1, "byteOffset" : 0, "componentType" : 5126, "count" : 8, "type" : "VEC3", "max" : [38, -22, 5], "min" : [3, -40, 0], "name" : "POSITION"}, {"bufferView" : 0, "byteOffset" : 72, "componentType" : 5123, "count" : 732, "type" : "SCALAR", "max" : [123], "min" : [0]}, {"bufferView" : 2, "byteOffset" : 0, "componentType" : 5126, "count" : 124, "type" : "VEC3", "max" : [46, -33.31532287597656, 20], "min" : [-6, -40.31532287597656, 0], "name" : "POSITION"}, {"bufferView" : 0, "byteOffset" : 1536, "componentType" : 5123, "count" : 84, "type" : "SCALAR", "max" : [15], "min" : [0]}, {"bufferView" : 3, "byteOffset" : 0, "componentType" : 5126, "count" : 16, "type" : "VEC3", "max" : [40.48125076293945, -10, 10], "min" : [28.045833587646484, -30.956249237060547, 0], "name" : "POSITION"}, {"bufferView" : 0, "byteOffset" : 1704, "componentType" : 5123, "count" : 108, "type" : "SCALAR", "max" : [19], "min" : [0]}, {"bufferView" : 4, "byteOffset" : 0, "componentType" : 5126, "count" : 20, "type" : "VEC3", "max" : [39.6875, 0, 10], "min" : [0.793749988079071, -37.04166793823242, 0], "name" : "POSITION"}, {"bufferView" : 0, "byteOffset" : 1920, "componentType" : 5123, "count" : 84, "type" : "SCALAR", "max" : [15], "min" : [0]}, {"bufferView" : 5, "byteOffset" : 0, "componentType" : 5126, "count" : 16, "type" : "VEC3", "max" : [8.75151538848877, -10, 10], "min" : [0, -30.956249237060547, 0], "name" : "POSITION"}], "asset" : {"generator" : "Aspose.3D 24.6.0", "version" : "2.0"}, "buffers" : [{"uri" : "data:application/octet-stream;base64,", "byteLength" : 4320}], "bufferViews" : [{"buffer" : 0, "byteOffset" : 0, "byteLength" : 2088, "target" : 34963}, {"buffer" : 0, "byteOffset" : 2092, "byteLength" : 96, "byteStride" : 12, "target" : 34962}, {"buffer" : 0, "byteOffset" : 2192, "byteLength" : 1488, "byteStride" : 12, "target" : 34962}, {"buffer" : 0, "byteOffset" : 3684, "byteLength" : 192, "byteStride" : 12, "target" : 34962}, {"buffer" : 0, "byteOffset" : 3880, "byteLength" : 240, "byteStride" : 12, "target" : 34962}, {"buffer" : 0, "byteOffset" : 4124, "byteLength" : 192, "byteStride" : 12, "target" : 34962}], "meshes" : [{"primitives" : [{"attributes" : {"POSITION" : 1}, "indices" : 0, "mode" : 4}], "name" : ""}, {"primitives" : [{"attributes" : {"POSITION" : 3}, "indices" : 2, "mode" : 4}], "name" : ""}, {"primitives" : [{"attributes" : {"POSITION" : 5}, "indices" : 4, "mode" : 4}], "name" : ""}, {"primitives" : [{"attributes" : {"POSITION" : 7}, "indices" : 6, "mode" : 4}], "name" : ""}, {"primitives" : [{"attributes" : {"POSITION" : 9}, "indices" : 8, "mode" : 4}], "name" : ""}], "nodes" : [{"mesh" : 0, "name" : "Body1"}, {"mesh" : 1, "name" : "Body1"}, {"mesh" : 2, "name" : "Body1"}, {"mesh" : 3, "name" : "Body2"}, {"mesh" : 4, "name" : "Body3"}], "scene" : 0, "scenes" : [{"nodes" : [0, 1, 2, 3, 4]}]}